# xmcd CD database file
# Copyright (C) 1993-1998 Ti Kan
#
# Track frame offsets:
#	150
#	16432
#	26864
#	47564
#	63206
#	80445
#	97135
#	113852
#	131083
#	148954
#	165107
#	183556
#	200497
#	218061
#	228225
#	241057
#	265370
#	285520
#	296716
#	309640
#	325529
#
# Disc length: 4400 seconds
#
# Revision: 1
# Processed by: cddbd v1.4b41PL1 Copyright (c) Steve Scherf et al.
# Submitted via: NotifyCDPlayer(CDDB) 1.51.3
#
DISCID=32112e15
DTITLE=Compilation - Alex's Country CD 2
DYEAR=1900
DGENRE=
TTITLE0=Garth Brooks - Pina Colada
TTITLE1=Garth Brooks - Longneck Bottle
TTITLE2=Garth Brooks - Aint Going Down
TTITLE3=Colin Raye - I Think About you
TTITLE4=Colin Raye - I'm On The Verge
TTITLE5=Garth Brooks - If Tommorrow Never Comes
TTITLE6=Colin Raye - The Time Machine
TTITLE7=Colin Raye - Love Remains
TTITLE8=Colin Raye - Me And You
TTITLE9=Garth Brooks - In Anothers Eye's
TTITLE10=Colin Raye - One Boy And One Girl
TTITLE11=Garth Brooks - The Thunder Rolls
TTITLE12=Garth Brooks - Standing Outside The Fire
TTITLE13=Colin Raye - Mis Behavin'
TTITLE14=Garth Brooks - The Dance
TTITLE15=Garth Brooks - That Old Wind
TTITLE16=Garth Brooks - The River
TTITLE17=Bill Ingvall - Scotsman
TTITLE18=Alabama - I'm In A Hurry
TTITLE19=Kenny Rogers - The Gambler
TTITLE20=Dukes Of Hazzard
EXTD=
EXTT0=
EXTT1=
EXTT2=
EXTT3=
EXTT4=
EXTT5=
EXTT6=
EXTT7=
EXTT8=
EXTT9=
EXTT10=
EXTT11=
EXTT12=
EXTT13=
EXTT14=
EXTT15=
EXTT16=
EXTT17=
EXTT18=
EXTT19=
EXTT20=
PLAYORDER=
